<svg width="24" height="24" viewBox="0 0 24 24" fill="none" xmlns="http://www.w3.org/2000/svg">
<path fill-rule="evenodd" clip-rule="evenodd" d="M2.28001 6.82083V19.326H10.356C10.4639 20.1151 10.6947 20.8824 11.04 21.6H2.28001C1.9807 21.6015 1.68407 21.5436 1.40719 21.43C1.13032 21.3162 0.878672 21.1489 0.666749 20.9375C0.454825 20.7262 0.286811 20.475 0.172382 20.1984C0.0579521 19.9218 -0.000631389 19.6253 5.13171e-06 19.326L0.0120051 6.82083C0.0100997 6.52217 0.0674185 6.22611 0.180647 5.94974C0.293875 5.67338 0.460767 5.42221 0.671672 5.21074C0.882576 4.99928 1.13331 4.83173 1.40937 4.71777C1.68543 4.60381 1.98135 4.54571 2.28001 4.54683H6.84001V2.27403C6.83937 1.97472 6.89795 1.67824 7.01238 1.40166C7.12681 1.12509 7.29483 0.873887 7.50675 0.662521C7.71867 0.451155 7.97032 0.283803 8.24719 0.170103C8.52407 0.0564024 8.8207 -0.00139949 9.12001 2.57275e-05H13.68C13.9793 -0.00139949 14.2759 0.0564024 14.5528 0.170103C14.8297 0.283803 15.0813 0.451155 15.2933 0.662521C15.5052 0.873887 15.6732 1.12509 15.7876 1.40166C15.9021 1.67824 15.9606 1.97472 15.96 2.27403V4.54683H20.52C20.8193 4.5454 21.1159 4.6032 21.3928 4.7169C21.6697 4.8306 21.9213 4.99796 22.1333 5.20932C22.3452 5.42069 22.5132 5.67189 22.6276 5.94846C22.7421 6.22504 22.8006 6.52152 22.8 6.82083V11.6628C22.1048 11.1741 21.3347 10.8016 20.52 10.56V6.82083H2.28001ZM13.68 2.27403H9.12001V4.54683H13.68V2.27403Z" fill="#002900"/>
<path fill-rule="evenodd" clip-rule="evenodd" d="M14.6666 13.0112C15.6533 12.3519 16.8133 12 18 12C18.7879 12 19.5682 12.1552 20.2961 12.4567C21.0241 12.7582 21.6855 13.2002 22.2426 13.7573C22.7998 14.3145 23.2418 14.9759 23.5433 15.7039C23.8448 16.4318 24 17.212 24 18C24 19.1867 23.6481 20.3467 22.9888 21.3334C22.3295 22.3201 21.3925 23.0891 20.2961 23.5433C19.1997 23.9974 17.9933 24.1162 16.8295 23.8847C15.6656 23.6532 14.5965 23.0817 13.7574 22.2426C12.9182 21.4035 12.3468 20.3344 12.1153 19.1705C11.8838 18.0066 12.0026 16.8002 12.4567 15.7039C12.9108 14.6075 13.6799 13.6705 14.6666 13.0112ZM17.4 18.24L19.98 20.82L20.82 19.968L18.6 17.748V14.4H17.4V18.24Z" fill="#002900"/>
</svg>
