<svg width="24" height="20" viewBox="0 0 24 20" fill="none" xmlns="http://www.w3.org/2000/svg">
<path d="M20.9992 3.66706H3.00082L12 11.5829L20.9992 3.66706ZM0.0010965 3.66706C-0.0206597 2.85471 0.282075 2.06662 0.843635 1.47373C1.4052 0.880843 2.1803 0.53097 3.00082 0.5L20.9992 0.5C21.8197 0.53097 22.5948 0.880843 23.1564 1.47373C23.7179 2.06662 24.0207 2.85471 23.9989 3.66706V16.3329C24.0207 17.1453 23.7179 17.9334 23.1564 18.5263C22.5948 19.1192 21.8197 19.469 20.9992 19.5H3.00082C2.1803 19.469 1.4052 19.1192 0.843635 18.5263C0.282075 17.9334 -0.0206597 17.1453 0.0010965 16.3329V3.66706Z" fill="#002900"/>
</svg>
