<svg width="24" height="17" viewBox="0 0 24 17" fill="none" xmlns="http://www.w3.org/2000/svg">
<path d="M8.4 10.5C5.592 10.5 0 11.904 0 14.7V16.8H16.8V14.7C16.8 11.904 11.208 10.5 8.4 10.5ZM2.808 14.4C4.51476 13.4342 6.439 12.918 8.4 12.9C10.361 12.918 12.2852 13.4342 13.992 14.4H2.808ZM8.4 8.4C9.23068 8.4 10.0427 8.15368 10.7334 7.69217C11.4241 7.23067 11.9624 6.57472 12.2803 5.80727C12.5982 5.03982 12.6814 4.19534 12.5193 3.38062C12.3572 2.5659 11.9572 1.81753 11.3698 1.23015C10.7825 0.642773 10.0341 0.242762 9.21938 0.0807037C8.40466 -0.0813542 7.56018 0.00181979 6.79273 0.319708C6.02528 0.637596 5.36933 1.17592 4.90783 1.86661C4.44633 2.55729 4.2 3.36932 4.2 4.2C4.2 5.31391 4.6425 6.3822 5.43015 7.16985C6.2178 7.9575 7.28609 8.4 8.4 8.4ZM8.4 2.4C8.75601 2.4 9.10402 2.50557 9.40003 2.70336C9.69603 2.90114 9.92675 3.18226 10.063 3.51117C10.1992 3.84008 10.2349 4.202 10.1654 4.55117C10.096 4.90033 9.92453 5.22106 9.67279 5.47279C9.42106 5.72453 9.10033 5.89596 8.75116 5.96542C8.402 6.03487 8.04008 5.99922 7.71117 5.86299C7.38226 5.72675 7.10114 5.49604 6.90336 5.20003C6.70557 4.90402 6.6 4.55601 6.6 4.2C6.6 3.72261 6.78964 3.26477 7.12721 2.92721C7.46477 2.58964 7.92261 2.4 8.4 2.4ZM16.848 10.572C17.5497 11.0131 18.1316 11.6208 18.5419 12.3409C18.9522 13.0611 19.1783 13.8714 19.2 14.7V16.8H24V14.7C24 12.276 19.8 10.896 16.848 10.572ZM15.6 8.4C16.7139 8.4 17.7822 7.9575 18.5699 7.16985C19.3575 6.3822 19.8 5.31391 19.8 4.2C19.8 3.08609 19.3575 2.01781 18.5699 1.23015C17.7822 0.442501 16.7139 1.69016e-06 15.6 1.69016e-06C14.976 0.00239694 14.3606 0.145983 13.8 0.420002C14.5808 1.52581 15.0001 2.8463 15.0001 4.2C15.0001 5.55371 14.5808 6.8742 13.8 7.98C14.3606 8.25402 14.976 8.39761 15.6 8.4Z" fill="#002900"/>
</svg>
