<svg width="24" height="24" viewBox="0 0 24 24" fill="none" xmlns="http://www.w3.org/2000/svg">
<path d="M3.00193 7.50097V20.9981H20.9981V7.50097H3.00193ZM19.4984 3.00193H22.4977C22.6978 2.98985 22.8982 3.02037 23.0856 3.09147C23.2731 3.16256 23.4433 3.27261 23.585 3.41436C23.7267 3.5561 23.8368 3.7263 23.9079 3.91372C23.979 4.10115 24.0095 4.30152 23.9974 4.50161V22.4977C24.0095 22.6978 23.979 22.8982 23.9079 23.0856C23.8368 23.2731 23.7267 23.4433 23.585 23.585C23.4433 23.7267 23.2731 23.8368 23.0856 23.9079C22.8982 23.979 22.6978 24.0095 22.4977 23.9974H1.50225C1.30216 24.0095 1.10179 23.979 0.914367 23.9079C0.726945 23.8368 0.556741 23.7267 0.414999 23.585C0.273258 23.4433 0.163204 23.2731 0.0921099 23.0856C0.0210154 22.8982 -0.00950212 22.6978 0.00257342 22.4977V4.50161C-0.00950212 4.30152 0.0210154 4.10115 0.0921099 3.91372C0.163204 3.7263 0.273258 3.5561 0.414999 3.41436C0.556741 3.27261 0.726945 3.16256 0.914367 3.09147C1.10179 3.02037 1.30216 2.98985 1.50225 3.00193H4.50161V1.50225C4.48953 1.30216 4.52005 1.10179 4.59115 0.914367C4.66224 0.726945 4.77229 0.556741 4.91403 0.414999C5.05578 0.273258 5.22598 0.163204 5.4134 0.0921099C5.60082 0.0210154 5.8012 -0.00950212 6.00129 0.00257342C6.20138 -0.00950212 6.40175 0.0210154 6.58917 0.0921099C6.77659 0.163204 6.9468 0.273258 7.08854 0.414999C7.23028 0.556741 7.34033 0.726945 7.41143 0.914367C7.48252 1.10179 7.51304 1.30216 7.50097 1.50225V3.00193H16.499V1.50225C16.499 1.10451 16.657 0.723063 16.9383 0.441819C17.2195 0.160575 17.601 0.00257342 17.9987 0.00257342C18.3965 0.00257342 18.7779 0.160575 19.0591 0.441819C19.3404 0.723063 19.4984 1.10451 19.4984 1.50225V3.00193ZM17.9987 17.9987H14.9994V14.9994H17.9987V17.9987ZM13.4997 17.9987H10.5003V14.9994H13.4997V17.9987ZM17.9987 13.4997H14.9994V10.5003H17.9987V13.4997ZM13.4997 13.4997H10.5003V10.5003H13.4997V13.4997ZM9.00064 17.9987H6.00129V14.9994H9.00064V17.9987Z" fill="#002900"/>
</svg>
