<svg width="24" height="24" viewBox="0 0 24 24" fill="none" xmlns="http://www.w3.org/2000/svg">
<path d="M10.2732 21.0732H2.5032V9.36H20.0232V14.4876L22.5264 12.1464V4.68C22.5023 4.0385 22.2257 3.4325 21.7569 2.99399C21.288 2.55548 20.6649 2.31999 20.0232 2.3388H18.7692V0H16.2672V2.3412H6.2568V0H3.7536V2.3412H2.5032C2.186 2.33095 1.86989 2.38335 1.57295 2.49538C1.27602 2.60741 1.00409 2.77689 0.772707 2.99411C0.541329 3.21133 0.355048 3.47204 0.224518 3.76132C0.0939883 4.05061 0.021772 4.36278 0.012 4.68L0 21.0732C0.0219138 21.7155 0.297843 22.3228 0.767187 22.7617C1.23653 23.2007 1.86091 23.4354 2.5032 23.4144H12.7764L10.2732 21.0732ZM2.5032 4.68H20.0232V7.0248H2.5032V4.68ZM16.9428 24L12.5136 19.8552L14.2776 18.204L16.9308 20.6856L22.236 15.72L24 17.3736L16.9428 24ZM9.2724 14.0484L11.262 15.9096L9.498 17.5608L7.5084 15.6996L5.52 17.5608L3.756 15.9096L5.7456 14.0484L3.7536 12.1872L5.52 10.536L7.5096 12.3972L9.4992 10.536L11.2632 12.1872L9.2724 14.0484Z" fill="#002900"/>
</svg>
