<svg width="12" height="20" viewBox="0 0 12 20" fill="none" xmlns="http://www.w3.org/2000/svg">
<path d="M1.15 19.1C0.900002 18.85 0.775002 18.554 0.775002 18.212C0.775002 17.87 0.900002 17.5743 1.15 17.325L8.475 10L1.125 2.65C0.891668 2.41667 0.775002 2.125 0.775002 1.775C0.775002 1.425 0.900002 1.125 1.15 0.875C1.4 0.625 1.696 0.5 2.038 0.5C2.38 0.5 2.67567 0.625 2.925 0.875L11.325 9.3C11.425 9.4 11.496 9.50833 11.538 9.625C11.58 9.74167 11.6007 9.86667 11.6 10C11.6 10.1333 11.579 10.2583 11.537 10.375C11.495 10.4917 11.4243 10.6 11.325 10.7L2.9 19.125C2.66667 19.3583 2.379 19.475 2.037 19.475C1.695 19.475 1.39933 19.35 1.15 19.1Z" fill="#002900"/>
</svg>
