<svg width="24" height="18" viewBox="0 0 24 18" fill="none" xmlns="http://www.w3.org/2000/svg">
<path fill-rule="evenodd" clip-rule="evenodd" d="M7.99679 7.99321C8.78719 7.99321 9.55984 7.75884 10.2171 7.31974C10.8743 6.88064 11.3865 6.25653 11.6891 5.52631C11.9916 4.7961 12.0708 3.99258 11.9167 3.21735C11.7626 2.44211 11.382 1.72999 10.8232 1.171C10.2644 0.612021 9.55241 0.231287 8.77722 0.0769417C8.00203 -0.0774035 7.19849 0.00157136 6.46818 0.303881C5.73788 0.60619 5.11361 1.11826 4.67432 1.77534C4.23502 2.43242 4.00042 3.205 4.00018 3.9954C4.00003 4.52035 4.10328 5.04018 4.30406 5.52521C4.50484 6.01023 4.7992 6.45096 5.17034 6.8222C5.54147 7.19345 5.98211 7.48795 6.46707 7.68887C6.95204 7.88979 7.47184 7.99321 7.99679 7.99321ZM7.99679 1.9941C8.39208 1.99387 8.77857 2.11084 9.10739 2.33023C9.43622 2.54962 9.69261 2.86158 9.84415 3.22667C9.9957 3.59176 10.0356 3.99359 9.9588 4.38135C9.882 4.76911 9.69196 5.1254 9.41269 5.40517C9.13343 5.68493 8.77749 5.87562 8.38986 5.95312C8.00224 6.03061 7.60034 5.99144 7.23498 5.84055C6.86962 5.68966 6.55719 5.43383 6.33721 5.1054C6.11723 4.77698 5.99956 4.3907 5.99908 3.9954C6.00098 3.46616 6.21206 2.95914 6.58629 2.58491C6.96052 2.21068 7.46755 1.9996 7.99679 1.9977V1.9941Z" fill="#002900"/>
<path d="M21.9975 5.59836V3.59946H19.9998V5.59836H18.0009V7.59726H19.9998V9.59857H21.9987V7.59606H24V5.59836H21.9975Z" fill="#002900"/>
<path fill-rule="evenodd" clip-rule="evenodd" d="M0 14.9977C0 12.3401 5.326 11.0011 7.99441 11.0011C10.6628 11.0011 15.9888 12.3401 15.9888 14.9977V17.9972H0V14.9977ZM1.9989 15.9971H13.9935L13.9971 14.9989C13.7943 14.2886 10.7 13 7.998 13C5.29601 13 2.19927 14.2886 1.9989 15.0085V15.9971Z" fill="#002900"/>
<path d="M12.5093 0.0492114C13.4691 1.14022 13.9985 2.54353 13.9985 3.99662C13.9985 5.44971 13.4691 6.85302 12.5093 7.94403C13.4724 7.82507 14.3588 7.35811 15.0016 6.63106C15.6444 5.90402 15.9992 4.96706 15.9992 3.99662C15.9992 3.02618 15.6444 2.08923 15.0016 1.36218C14.3588 0.635135 13.4724 0.168169 12.5093 0.0492114Z" fill="#002900"/>
<path d="M17.6047 13.2556C17.3515 12.7094 16.9846 12.2234 16.5287 11.8302C18.4124 12.4901 19.9962 13.5496 19.9962 14.9977V17.9973H17.9973V14.9977C17.9918 14.3957 17.8579 13.8018 17.6047 13.2556Z" fill="#002900"/>
</svg>
