<svg width="16" height="16" viewBox="0 0 16 16" fill="none" xmlns="http://www.w3.org/2000/svg">
<path d="M6.875 15.3001L0.275 8.70006C0.175 8.60006 0.104 8.49173 0.0620002 8.37506C0.0200002 8.25839 -0.0006663 8.13339 3.66357e-07 8.00006C3.66357e-07 7.86673 0.0210006 7.74173 0.0630006 7.62506C0.105001 7.50839 0.175667 7.40006 0.275 7.30006L6.875 0.70006C7.05833 0.516727 7.28767 0.421061 7.563 0.413061C7.83833 0.405061 8.07567 0.500727 8.275 0.70006C8.475 0.883394 8.57933 1.11273 8.588 1.38806C8.59667 1.66339 8.50067 1.90073 8.3 2.10006L3.4 7.00006H14.575C14.8583 7.00006 15.096 7.09606 15.288 7.28806C15.48 7.48006 15.5757 7.71739 15.575 8.00006C15.575 8.28339 15.4793 8.52106 15.288 8.71306C15.0967 8.90506 14.859 9.00073 14.575 9.00006H3.4L8.3 13.9001C8.48333 14.0834 8.57933 14.3167 8.588 14.6001C8.59667 14.8834 8.50067 15.1167 8.3 15.3001C8.11667 15.5001 7.88333 15.6001 7.6 15.6001C7.31667 15.6001 7.075 15.5001 6.875 15.3001Z" fill="#002900"/>
</svg>
