<svg xmlns="http://www.w3.org/2000/svg" viewBox="0 0 512 138"><path d="M495.9938,32.084H458.3245a14.5191,14.5191,0,0,0-14.5027,14.5027V91.4132a14.5191,14.5191,0,0,0,14.5027,14.5027h37.6693a14.5191,14.5191,0,0,0,14.5027-14.5027V46.5867A14.5191,14.5191,0,0,0,495.9938,32.084Zm-.565,14.1275V91.7884H458.89V46.2115Z" fill="#fff"/><path d="M394.6318,62.0433h-.7534V76.1707h22.57V91.7884H378.779V46.2115h48.97V32.084H378.2222l-.01,0-.2924.0073a14.5,14.5,0,0,0-14.209,14.4951V91.4132a14.4994,14.4994,0,0,0,14.2131,14.4952l52.8382.0075.7534,0V62.0433H394.6318Z" fill="#fff"/><polygon points="350.652 32.084 336.664 32.084 335.91 32.084 335.91 32.837 335.91 62.044 299.576 32.475 299.095 32.084 298.341 32.084 283.6 32.084 283.6 105.916 284.353 105.916 298.341 105.916 299.095 105.916 299.095 52.061 335.91 82.021 335.91 105.916 336.664 105.916 350.652 105.916 351.405 105.916 351.405 32.837 351.405 32.084 350.652 32.084" fill="#fff"/><polygon points="256.753 32.084 256 32.084 256 32.837 256 105.916 256 105.916 256.753 105.916 270.741 105.916 271.495 105.916 271.495 105.916 271.495 32.837 271.495 32.084 270.741 32.084 256.753 32.084" fill="#fff"/><path d="M244.5254,46.4193V32.084H193.0539a15.6349,15.6349,0,0,0-15.6171,15.6172V105.916H192.84V76.3948h47.0307V62.06H192.84v-15.64Z" fill="#fff"/><path d="M91.9436,57.2h-19.6V80.8h19.6a11.8,11.8,0,0,0,0-23.6Z" fill="#fff"/><path d="M32.9534,69a11.8155,11.8155,0,0,0,11.8,11.8h18.58V57.2h-18.58A11.8156,11.8156,0,0,0,32.9534,69Z" fill="#fff"/><path d="M68.3509,1a68,68,0,1,0,68,68A68,68,0,0,0,68.3509,1ZM91.9436,89.81h-19.6v9.01h9.02v9.02h-18.03V89.81h-18.58a20.81,20.81,0,1,1,0-41.62h18.58V30.16h18.03v9.02h-9.02v9.01h19.6a20.81,20.81,0,1,1,0,41.62Z" fill="#fff"/></svg>